<?xml version="1.0" encoding="iso-8859-1"?>
<!-- Generator: Adobe Illustrator 19.0.0, SVG Export Plug-In . SVG Version: 6.00 Build 0)  -->
<svg version="1.1" id="Calque_1" xmlns="http://www.w3.org/2000/svg" xmlns:xlink="http://www.w3.org/1999/xlink" x="0px" y="0px"
	 viewBox="0 0 512 512" style="enable-background:new 0 0 512 512;" xml:space="preserve">
<g id="XMLID_3_">
	<path id="XMLID_62_" style="fill:#37474F;stroke:#6E6F72;stroke-width:0.5;stroke-miterlimit:10;" d="M325.977,320.544
		c-17.124-7.709-17.462-23.261-17.462-23.261V183.845c0,0,1.09-18.274,16.776-26.6c13.699-7.27,10.323-22.475,0-24.98
		c-21.534-5.224-20.942-22.867-20.942-22.867V20.134c0,0,1.85-15.955-22.902-15.955c-24.751,0-110.626,0-110.626,0
		s-85.874,0-110.626,0c-24.751,0-22.893,15.964-22.893,15.964v89.264c0,0,0.603,17.823-20.942,22.867
		c-10.341,2.421-13.699,17.71,0,24.98c15.686,8.327,16.776,26.6,16.776,26.6v113.429c0,0-0.339,15.552-17.462,23.261
		c-11.565,5.211-10.54,16.08-0.733,20.19c17.847,7.476,16.336,27.442,16.336,27.442s0.191,73.471,0,108.281
		c-0.173,31.628,25.745,30.293,25.745,30.293h113.803l100.686,0.22c0,0,38.378,0.168,38.862-30.513
		c0.549-34.797,0-108.281,0-108.281s-1.511-19.966,16.336-27.442C336.517,336.624,337.543,325.746,325.977,320.544z M213.502,54.676
		h-85.343c-6.776,0-12.325-5.426-12.325-12.051s5.549-12.051,12.325-12.051h85.343c6.776,0,12.325,5.426,12.325,12.051
		C225.836,49.25,220.287,54.676,213.502,54.676z"/>
</g>
<g id="XMLID_6_">
	<path id="XMLID_4_" style="fill:#FFFFFF;" d="M91.774,259.779h34.784v35.389H91.774c-18.9,0-30.088,11.797-33.567,35.388h68.351
		v35.389H56.99v141.552H4.814V348.25C4.814,289.271,33.799,259.779,91.774,259.779z"/>
</g>
<path id="XMLID_31_" style="fill:#FFFFFF;" d="M175.654,419.124v-88.268h47.94v88.268c0,35.306,10.651,52.96,31.959,52.96h15.981
	c10.652,0,15.98-5.884,15.98-17.654V330.856h47.939V454.43c0,35.308-21.308,52.961-63.92,52.961h-15.981
	C202.285,507.39,175.654,477.97,175.654,419.124z"/>
<path id="XMLID_33_" style="fill:#37474F;" d="M507.186,490.121v17.7h-51.932v-17.7c0-35.402-11.542-53.101-34.623-53.101
	c-23.083,0-34.621,17.7-34.621,53.101v17.7h-51.933v-17.7c0-32.57,8.829-56.168,26.486-70.801
	c-17.657-14.63-26.486-38.234-26.486-70.801v-17.701h51.933v17.701c0,35.399,11.538,53.1,34.621,53.1
	c23.081,0,34.623-17.701,34.623-53.1v-17.701h51.932v17.701c0,32.567-8.829,56.171-26.486,70.801
	C498.358,433.953,507.186,457.552,507.186,490.121z"/>
<g id="XMLID_26_">
	<g id="XMLID_85_">
		
			<line id="XMLID_88_" style="fill:none;stroke:#00B8D4;stroke-width:45;stroke-miterlimit:10;" x1="150.932" y1="506.97" x2="150.932" y2="236.689"/>
		<g id="XMLID_86_">
			<polygon id="XMLID_87_" style="fill:#00B8D4;" points="191.321,248.507 150.935,178.566 110.546,248.507 			"/>
		</g>
	</g>
</g>
</svg>
