<svg version="1" xmlns="http://www.w3.org/2000/svg" width="1398.667" height="1398.667" viewBox="0 0 1049.000000 1049.000000"><path d="M190.3 10c-17.3 1.9-30.4 6.5-38.3 13.6-8.1 7.4-7.4-1.9-8 108.4l-.5 98.5-2.8 5.9c-7.9 16.9-23.7 27-52.2 33.6-14.1 3.2-15.6 3.8-21.3 8-4.6 3.3-9.2 11.3-9.2 16 0 9.2 7.7 18.9 19.7 24.5 4 1.9 10.6 5.1 14.7 7 14.3 6.8 26.6 18.5 33.4 32.1 6.6 13.2 6.3 4.7 6 136.5l-.3 119.4-3.3 6.7c-6.8 13.9-21.1 25.5-40.2 32.8-20 7.7-24.6 10.6-27.9 17.4-2.6 5.3-2.6 6.9 0 12.3 2.7 5.7 8.7 9.7 20.5 13.9 5.2 1.9 11.6 4.5 14.2 5.8 13.8 7 24.1 18.3 29.1 31.9l2.6 7.2.5 124 .5 124 2.2 5.8c7 18.5 19.7 29.6 41.8 36.3l9 2.8 271 .8c323.1 1 375.8.8 390-1.6 49.4-8.2 76-25.9 80.5-53.6.6-4.2 1-46.6 1-122 0-104 .1-116 1.6-121 5.7-19.3 19.5-32.1 43.1-40.1 4.7-1.6 10.5-4 12.9-5.4 9-5.3 12.6-14.3 8.6-21.5-3.5-6.4-8.9-9.6-29.7-17.6-17.8-6.8-31.4-18.2-38.1-31.8l-3.9-8-.3-117.5c-.2-85.5 0-119.1.8-123.1 1.6-7.6 8-20.5 13.2-26.5 9.3-10.9 18.2-17.2 34-24 13-5.7 19.8-10.9 23.2-17.6 3.2-6.4 3.3-11.8.5-17.5-4.1-8.7-11.7-13.2-27.2-16.4-28.3-5.8-47-18-54-35l-2.2-5.5-.5-98c-.6-109.3.1-100.2-7.7-107.7-5-4.9-15-9.4-26.5-12.1l-9.3-2.2-332-.1c-182.6-.1-335.3.2-339.2.6zM757 135.9v65l-75.2.4c-71.5.4-75.8.5-84.8 2.4-51.6 11.3-81.8 46.5-95.5 111.6-1.4 6.4-2.5 12.6-2.5 13.7 0 2 1 2 129 2h129v131H494v520H296l.3-314.8c.3-285.8.5-315.9 2-328 5.2-41.5 12.1-71 23.4-99.7 38.3-97.5 120.6-153.4 244-166 22.1-2.2 18.8-2.1 108.1-2.3L757 71v64.9zm-13 529.7l47.8 82.9-21.4.3-21.4.2v233H641V749h-21c-11.5 0-21-.2-21-.5 0-.7 93.9-163.5 95.3-165.3.5-.7 1.2-1.1 1.4-.8.2.2 21.9 37.7 48.3 83.2z"/></svg>